<svg xmlns="http://www.w3.org/2000/svg" viewBox="0 0 48 48" id="up">
  <path d="M42.38,15.9,28.24,1.76A5.12,5.12,0,0,0,27.33,1,3.24,3.24,0,0,0,27,.81L26.76.69a3.42,3.42,0,0,0-.47-.23A2.7,2.7,0,0,0,25.81.3L25.58.23a2.45,2.45,0,0,0-.41-.11,5.81,5.81,0,0,0-2.35,0,1.9,1.9,0,0,0-.39.11L22.19.3a3,3,0,0,0-.48.16,3.42,3.42,0,0,0-.47.23L21,.8c-.12.07-.24.13-.36.21a5.54,5.54,0,0,0-.91.74L5.62,15.9a6,6,0,0,0,8.48,8.48l3.9-3.9V42a6,6,0,0,0,12,0V20.48l3.9,3.9a6,6,0,1,0,8.48-8.48ZM41,23a4,4,0,0,1-5.66,0l-5.6-5.61a1,1,0,0,0-1.09-.21,1,1,0,0,0-.62.92V42a4,4,0,0,1-8,0V18.07a1,1,0,0,0-.62-.92.84.84,0,0,0-.38-.08,1,1,0,0,0-.71.29L12.69,23A4,4,0,1,1,7,17.31L21.17,3.17a4.28,4.28,0,0,1,.61-.5l.15-.08.3-.16.24-.13.26-.08.32-.09.17,0a3.73,3.73,0,0,1,1.56,0l.17,0,.33.1.25.07.24.13.3.16.15.08a4.28,4.28,0,0,1,.61.5L41,17.31A4,4,0,0,1,41,23Z"></path>
</svg>
